<?xml version="1.0" standalone="no"?>
<!DOCTYPE svg PUBLIC "-//W3C//DTD SVG 20010904//EN"
 "http://www.w3.org/TR/2001/REC-SVG-20010904/DTD/svg10.dtd">
<svg version="1.0" xmlns="http://www.w3.org/2000/svg"
 width="844.000000pt" height="844.000000pt" viewBox="0 0 844.000000 844.000000"
 preserveAspectRatio="xMidYMid meet">
<metadata>
Created by potrace 1.11, written by Peter Selinger 2001-2013
</metadata>
<g transform="translate(0.000000,844.000000) scale(0.100000,-0.100000)"
fill="#000000" stroke="none">
<path d="M4000 8428 c-920 -45 -1834 -413 -2537 -1022 -649 -561 -1119 -1324
-1327 -2151 -84 -337 -116 -586 -123 -955 -8 -415 24 -711 117 -1088 186 -752
560 -1413 1109 -1963 192 -192 314 -296 511 -440 601 -439 1328 -712 2088
-785 209 -20 693 -14 872 10 529 74 930 192 1355 401 438 216 785 464 1131
809 198 199 343 372 486 579 835 1212 982 2759 391 4097 -397 897 -1095 1630
-1969 2068 -650 325 -1372 476 -2104 440z m-2423 -2979 c5 -5 66 -204 134
-440 90 -315 127 -429 137 -427 9 2 54 143 129 408 63 223 121 412 129 420 12
12 16 12 29 -1 8 -8 68 -198 132 -422 74 -255 122 -407 130 -407 14 0 11 -11
149 480 59 206 112 381 120 389 17 19 44 -2 44 -33 0 -18 -265 -938 -285 -988
-9 -23 -32 -30 -47 -14 -7 7 -65 196 -128 420 -86 304 -119 406 -129 404 -17
-4 -5 35 -136 -433 -66 -237 -113 -385 -123 -393 -13 -10 -19 -10 -30 2 -8 8
-72 211 -143 452 -162 553 -164 557 -156 577 7 19 28 22 44 6z m2048 1 c4 -6
6 -106 6 -223 -1 -116 3 -218 7 -224 6 -9 22 2 56 37 83 86 193 121 314 100
154 -27 260 -123 298 -270 46 -181 -37 -360 -204 -438 -50 -24 -70 -27 -157
-27 -93 0 -105 2 -167 33 -81 40 -148 110 -180 190 -22 55 -23 68 -26 430 -3
380 -1 402 34 402 7 0 16 -5 19 -10z m1717 -4 c181 -33 329 -160 389 -336 29
-86 32 -247 5 -335 -53 -177 -171 -296 -346 -350 -71 -22 -385 -34 -418 -16
l-22 12 0 507 c0 382 3 511 12 520 17 17 282 15 380 -2z m-3937 -226 c0 -21
-32 -44 -250 -176 -137 -83 -250 -157 -250 -164 0 -6 113 -78 250 -160 252
-148 277 -169 242 -198 -11 -10 -70 21 -293 154 -153 92 -287 174 -297 183
-10 10 -15 24 -12 32 7 19 576 360 595 356 9 -1 15 -13 15 -27z m1782 -104
c100 -46 166 -142 186 -268 16 -104 35 -98 -309 -98 l-294 0 0 -34 c0 -52 58
-154 108 -193 98 -74 224 -81 346 -19 62 32 72 35 85 21 13 -13 12 -17 -8 -39
-12 -13 -50 -37 -84 -52 -54 -26 -74 -29 -157 -29 -84 0 -102 3 -152 28 -148
73 -226 233 -198 411 31 198 172 316 360 300 36 -3 88 -15 117 -28z m3240 -2
c99 -48 171 -155 187 -281 11 -86 21 -83 -320 -83 l-295 0 7 -37 c38 -218 284
-324 467 -202 47 31 77 30 77 -2 0 -43 -154 -109 -253 -109 -154 0 -282 90
-338 239 -17 47 -20 73 -17 156 3 86 7 109 32 159 47 96 125 161 223 186 61
15 171 3 230 -26z m424 -214 c60 -129 125 -270 144 -314 31 -66 39 -76 50 -65
7 8 70 142 140 299 71 157 136 293 145 303 20 21 50 13 50 -14 0 -29 -307
-682 -327 -696 -10 -7 -23 -9 -29 -5 -12 7 -334 682 -334 699 0 15 24 34 39
31 7 -2 62 -109 122 -238z m-4149 -1107 c63 -22 165 -80 172 -100 8 -19 -4
-43 -20 -43 -8 0 -33 13 -55 30 -199 144 -501 80 -644 -135 -56 -85 -77 -155
-79 -260 -2 -213 126 -392 329 -460 114 -38 291 -12 385 56 45 33 73 35 78 6
7 -38 -79 -96 -183 -123 -76 -21 -221 -18 -296 6 -248 76 -410 337 -369 595
33 211 201 395 403 441 78 17 205 12 279 -13z m426 5 c9 -9 12 -121 12 -444 0
-282 4 -442 11 -461 18 -49 48 -72 101 -79 43 -6 49 -10 46 -28 -3 -18 -11
-22 -52 -24 -62 -4 -115 29 -145 90 -20 43 -21 56 -21 494 0 248 3 454 7 457
10 11 28 8 41 -5z m1322 -7 c6 -12 10 -106 10 -236 l0 -217 48 50 c106 114
276 142 428 70 141 -65 224 -236 195 -396 -24 -129 -93 -220 -209 -275 -60
-29 -76 -32 -157 -31 -122 1 -190 27 -265 103 -31 31 -67 79 -80 106 l-25 50
-3 389 c-3 401 -3 405 35 406 7 0 17 -9 23 -19z m1339 1 c8 -15 -19 -90 -120
-343 -71 -178 -172 -433 -225 -567 -94 -236 -97 -243 -122 -240 -15 2 -28 10
-30 19 -3 17 431 1114 450 1137 15 17 36 15 47 -6z m473 -369 c153 -92 280
-174 283 -182 3 -7 1 -19 -5 -26 -22 -27 -569 -347 -587 -343 -11 2 -18 12
-18 27 0 19 37 45 250 171 138 81 250 154 250 161 0 7 -110 79 -245 160 -135
81 -249 154 -254 162 -15 23 1 50 26 44 12 -4 147 -82 300 -174z m-2758 61
c14 -5 16 -34 16 -223 0 -250 9 -298 67 -362 48 -52 103 -80 174 -86 113 -11
223 38 269 119 24 42 25 50 30 292 4 218 7 250 22 259 12 8 21 7 32 -2 14 -12
16 -53 14 -365 l-3 -351 -30 0 c-29 0 -30 2 -33 48 -2 26 -5 47 -7 47 -3 0
-25 -15 -49 -34 -67 -51 -129 -71 -216 -71 -140 1 -241 60 -297 173 -28 57
-28 57 -31 296 -2 131 -1 244 2 252 6 15 16 17 40 8z"/>
<path d="M3883 5080 c-96 -20 -169 -75 -212 -162 -27 -53 -31 -72 -31 -143 0
-71 4 -90 30 -143 57 -113 145 -167 275 -167 95 0 152 22 212 82 66 66 88 123
88 228 0 74 -5 99 -23 137 -62 124 -205 195 -339 168z"/>
<path d="M5025 5389 c-3 -8 -4 -219 -3 -469 l3 -455 90 -3 c210 -7 340 32 439
131 89 89 136 207 136 342 0 203 -115 372 -298 437 -74 26 -358 40 -367 17z"/>
<path d="M2968 5077 c-86 -25 -163 -103 -188 -191 -22 -79 -34 -76 265 -76
223 0 267 2 271 14 3 8 -1 39 -10 69 -19 67 -89 148 -146 171 -57 23 -137 28
-192 13z"/>
<path d="M6195 5073 c-28 -10 -67 -31 -88 -47 -45 -34 -100 -140 -95 -182 l3
-29 265 0 265 0 3 23 c5 37 -26 116 -63 160 -68 78 -191 110 -290 75z"/>
<path d="M4680 3427 c-93 -26 -154 -79 -196 -170 -24 -53 -26 -68 -22 -145 7
-132 59 -216 166 -269 77 -38 193 -40 263 -5 64 31 117 85 148 151 36 78 37
203 1 276 -65 132 -220 202 -360 162z"/>
</g>
</svg>
